<svg xmlns="http://www.w3.org/2000/svg" width="201" height="42" viewBox="0 0 201 42"><defs><style>.a,.c{fill:#fff;}.a{font-size:33px;font-family:FuturaPT-Bold, Futura PT;font-weight:700;}.b{fill:#00a2ff;}.d{fill:#5eb6e1;}</style></defs><g transform="translate(-140 -9436.898)"><text class="a" transform="translate(199 9468.897)"><tspan x="0" y="0">Be</tspan><tspan class="b" y="0">Strong</tspan></text><g transform="translate(140 9444.981)"><rect class="c" width="8" height="28" rx="4" transform="translate(15 -0.084)"/><rect class="d" width="6" height="22" rx="3" transform="translate(7 2.916)"/><path class="c" d="M6,0H7A0,0,0,0,1,7,0V12a0,0,0,0,1,0,0H6A6,6,0,0,1,0,6V6A6,6,0,0,1,6,0Z" transform="translate(0 7.916)"/><rect class="c" width="34" height="12" transform="translate(19 7.916)"/></g></g></svg>